<svg width="619" height="67" viewBox="0 0 619 67" fill="none" xmlns="http://www.w3.org/2000/svg">
<g opacity="0.5">
<mask id="path-1-inside-1_25_46" fill="white">
<path fill-rule="evenodd" clip-rule="evenodd" d="M0.590732 66.6059C0.590732 66.6059 153.68 -81.471 313.217 66.6059C313.217 66.6059 453.415 -82.374 618.591 66.6059"/>
</mask>
<path fill-rule="evenodd" clip-rule="evenodd" d="M0.590732 66.6059C0.590732 66.6059 153.68 -81.471 313.217 66.6059C313.217 66.6059 453.415 -82.374 618.591 66.6059" fill="black" fill-opacity="0.01"/>
<path d="M313.217 66.6059L312.536 67.3388L313.264 68.0144L313.945 67.2912L313.217 66.6059ZM0.590732 66.6059C1.28597 67.3246 1.2862 67.3244 1.28701 67.3236C1.28805 67.3226 1.28944 67.3213 1.29153 67.3193C1.29571 67.3152 1.30222 67.309 1.31104 67.3005C1.32869 67.2836 1.35559 67.2578 1.3917 67.2235C1.46391 67.1548 1.57289 67.0516 1.71809 66.9157C2.00849 66.6439 2.44376 66.2412 3.0194 65.721C4.17071 64.6806 5.88343 63.1707 8.12176 61.2996C12.5987 57.5572 19.1768 52.3709 27.5699 46.6069C44.3594 35.0764 68.3924 21.247 97.3806 12.03C155.303 -6.3866 233.069 -6.42014 312.536 67.3388L313.897 65.8729C233.828 -8.44505 155.282 -8.4786 96.7746 10.124C67.5483 19.4167 43.338 33.3516 26.4376 44.9582C17.9858 50.7627 11.3574 55.9881 6.83904 59.7651C4.57973 61.6538 2.84762 63.1806 1.6785 64.2371C1.09393 64.7653 0.650085 65.176 0.351434 65.4555C0.202107 65.5952 0.0890754 65.7022 0.0128995 65.7747C-0.0251886 65.811 -0.0540632 65.8386 -0.0736544 65.8574C-0.0834501 65.8668 -0.0909249 65.874 -0.0960702 65.8789C-0.0986425 65.8814 -0.100753 65.8834 -0.10204 65.8847C-0.103566 65.8862 -0.104509 65.8871 0.590732 66.6059ZM313.217 66.6059C313.945 67.2912 313.945 67.291 313.946 67.2902C313.947 67.2892 313.948 67.2879 313.95 67.2859C313.954 67.2819 313.959 67.2757 313.967 67.2672C313.984 67.2503 314.008 67.2245 314.041 67.19C314.107 67.1211 314.207 67.0175 314.34 66.881C314.606 66.608 315.005 66.2032 315.534 65.6803C316.592 64.6345 318.169 63.1164 320.236 61.2349C324.371 57.4717 330.467 52.2561 338.298 46.4593C353.965 34.8633 376.558 20.9557 404.28 11.6868C459.658 -6.82922 535.619 -6.88373 617.921 67.3484L619.261 65.8633C536.387 -8.8844 459.661 -8.93891 403.646 9.79002C375.671 19.1436 352.891 33.1697 337.108 44.8518C329.215 50.6941 323.068 55.9537 318.89 59.7558C316.801 61.657 315.205 63.1941 314.128 64.2579C313.59 64.7898 313.182 65.2034 312.908 65.4851C312.77 65.6259 312.667 65.7337 312.596 65.8069C312.561 65.8434 312.535 65.8713 312.517 65.8904C312.508 65.8999 312.501 65.9072 312.496 65.9122C312.494 65.9147 312.492 65.9168 312.491 65.9181C312.489 65.9196 312.488 65.9205 313.217 66.6059Z" fill="white" mask="url(#path-1-inside-1_25_46)"/>
</g>
</svg>
